<mxfile host="app.diagrams.net" modified="2021-04-23T05:20:40.257Z" agent="5.0 (Windows NT 10.0; WOW64) AppleWebKit/537.36 (KHTML, like Gecko) Chrome/84.0.4147.89 Safari/537.36 SLBrowser/7.0.0.4071 SLBChan/25" etag="rh0ifzgMAL_6i72ajmQP" version="14.6.3" type="github">
  <diagram id="1TSA4c0lIp7QcU-2RQlL" name="Page-1">
    <mxGraphModel dx="1422" dy="1933" grid="1" gridSize="10" guides="1" tooltips="1" connect="1" arrows="1" fold="1" page="1" pageScale="1" pageWidth="827" pageHeight="1169" math="0" shadow="0">
      <root>
        <mxCell id="0" />
        <mxCell id="1" parent="0" />
        <mxCell id="tPKEBXlNjOD2yAldGvw4-2" value="" style="rounded=0;whiteSpace=wrap;html=1;" vertex="1" parent="1">
          <mxGeometry x="320" y="100" width="260" height="330" as="geometry" />
        </mxCell>
        <mxCell id="tPKEBXlNjOD2yAldGvw4-3" value="" style="rounded=0;whiteSpace=wrap;html=1;" vertex="1" parent="1">
          <mxGeometry x="350" y="150" width="210" height="240" as="geometry" />
        </mxCell>
        <mxCell id="tPKEBXlNjOD2yAldGvw4-16" style="edgeStyle=orthogonalEdgeStyle;rounded=0;orthogonalLoop=1;jettySize=auto;html=1;exitX=1;exitY=0.5;exitDx=0;exitDy=0;exitPerimeter=0;entryX=0;entryY=0.5;entryDx=0;entryDy=0;fontSize=14;" edge="1" parent="1" source="tPKEBXlNjOD2yAldGvw4-6" target="tPKEBXlNjOD2yAldGvw4-7">
          <mxGeometry relative="1" as="geometry" />
        </mxCell>
        <mxCell id="tPKEBXlNjOD2yAldGvw4-6" value="&lt;b&gt;数据库&lt;/b&gt;" style="shape=cylinder3;whiteSpace=wrap;html=1;boundedLbl=1;backgroundOutline=1;size=15;" vertex="1" parent="1">
          <mxGeometry x="60" y="50" width="80" height="80" as="geometry" />
        </mxCell>
        <mxCell id="tPKEBXlNjOD2yAldGvw4-17" style="edgeStyle=orthogonalEdgeStyle;rounded=0;orthogonalLoop=1;jettySize=auto;html=1;exitX=0.5;exitY=1;exitDx=0;exitDy=0;entryX=0;entryY=0.5;entryDx=0;entryDy=0;fontSize=14;" edge="1" parent="1" source="tPKEBXlNjOD2yAldGvw4-7" target="tPKEBXlNjOD2yAldGvw4-10">
          <mxGeometry relative="1" as="geometry">
            <Array as="points">
              <mxPoint x="230" y="140" />
              <mxPoint x="250" y="140" />
              <mxPoint x="250" y="215" />
            </Array>
          </mxGeometry>
        </mxCell>
        <mxCell id="tPKEBXlNjOD2yAldGvw4-7" value="数据采集&lt;br&gt;数据治理" style="rounded=0;whiteSpace=wrap;html=1;" vertex="1" parent="1">
          <mxGeometry x="170" y="70" width="120" height="40" as="geometry" />
        </mxCell>
        <mxCell id="tPKEBXlNjOD2yAldGvw4-8" value="算法服务" style="rounded=0;whiteSpace=wrap;html=1;strokeColor=none;fontStyle=1;fontSize=14;" vertex="1" parent="1">
          <mxGeometry x="320" y="100" width="90" height="30" as="geometry" />
        </mxCell>
        <mxCell id="tPKEBXlNjOD2yAldGvw4-19" style="edgeStyle=orthogonalEdgeStyle;rounded=0;orthogonalLoop=1;jettySize=auto;html=1;exitX=0.5;exitY=1;exitDx=0;exitDy=0;entryX=0.5;entryY=0;entryDx=0;entryDy=0;fontSize=14;" edge="1" parent="1" source="tPKEBXlNjOD2yAldGvw4-10" target="tPKEBXlNjOD2yAldGvw4-12">
          <mxGeometry relative="1" as="geometry" />
        </mxCell>
        <mxCell id="tPKEBXlNjOD2yAldGvw4-10" value="数据预处理" style="rounded=0;whiteSpace=wrap;html=1;fontSize=14;" vertex="1" parent="1">
          <mxGeometry x="390" y="200" width="120" height="30" as="geometry" />
        </mxCell>
        <mxCell id="tPKEBXlNjOD2yAldGvw4-11" value="算法函数" style="rounded=0;whiteSpace=wrap;html=1;strokeColor=none;fontStyle=1;fontSize=14;" vertex="1" parent="1">
          <mxGeometry x="354" y="160" width="86" height="20" as="geometry" />
        </mxCell>
        <mxCell id="tPKEBXlNjOD2yAldGvw4-20" style="edgeStyle=orthogonalEdgeStyle;rounded=0;orthogonalLoop=1;jettySize=auto;html=1;exitX=0.5;exitY=1;exitDx=0;exitDy=0;entryX=0.5;entryY=0;entryDx=0;entryDy=0;fontSize=14;" edge="1" parent="1" source="tPKEBXlNjOD2yAldGvw4-12" target="tPKEBXlNjOD2yAldGvw4-18">
          <mxGeometry relative="1" as="geometry" />
        </mxCell>
        <mxCell id="tPKEBXlNjOD2yAldGvw4-12" value="算法主函数" style="rounded=0;whiteSpace=wrap;html=1;fontSize=14;fontStyle=1;fontColor=#FF0000;" vertex="1" parent="1">
          <mxGeometry x="390" y="260" width="120" height="30" as="geometry" />
        </mxCell>
        <mxCell id="tPKEBXlNjOD2yAldGvw4-15" value="" style="edgeStyle=orthogonalEdgeStyle;rounded=0;orthogonalLoop=1;jettySize=auto;html=1;fontSize=14;entryX=0;entryY=0.5;entryDx=0;entryDy=0;" edge="1" parent="1" source="tPKEBXlNjOD2yAldGvw4-14" target="tPKEBXlNjOD2yAldGvw4-12">
          <mxGeometry relative="1" as="geometry">
            <Array as="points">
              <mxPoint x="190" y="275" />
            </Array>
          </mxGeometry>
        </mxCell>
        <mxCell id="tPKEBXlNjOD2yAldGvw4-14" value="&lt;b&gt;&lt;font style=&quot;font-size: 11px&quot;&gt;配置文档&lt;/font&gt;&lt;/b&gt;&lt;br&gt;1.阈值预设&lt;br&gt;2.算法参数&lt;br&gt;3.处理策略" style="shape=note;whiteSpace=wrap;html=1;backgroundOutline=1;darkOpacity=0.05;fontSize=14;size=24;" vertex="1" parent="1">
          <mxGeometry x="140" y="170" width="100" height="90" as="geometry" />
        </mxCell>
        <mxCell id="tPKEBXlNjOD2yAldGvw4-22" style="edgeStyle=orthogonalEdgeStyle;rounded=0;orthogonalLoop=1;jettySize=auto;html=1;exitX=1;exitY=0.5;exitDx=0;exitDy=0;fontSize=14;" edge="1" parent="1" source="tPKEBXlNjOD2yAldGvw4-18" target="tPKEBXlNjOD2yAldGvw4-21">
          <mxGeometry relative="1" as="geometry" />
        </mxCell>
        <mxCell id="tPKEBXlNjOD2yAldGvw4-18" value="输出整合" style="rounded=0;whiteSpace=wrap;html=1;fontSize=14;" vertex="1" parent="1">
          <mxGeometry x="390" y="320" width="120" height="30" as="geometry" />
        </mxCell>
        <mxCell id="tPKEBXlNjOD2yAldGvw4-25" style="edgeStyle=orthogonalEdgeStyle;rounded=0;orthogonalLoop=1;jettySize=auto;html=1;exitX=1;exitY=0.5;exitDx=0;exitDy=0;fontSize=14;fontColor=#FF0000;" edge="1" parent="1" source="tPKEBXlNjOD2yAldGvw4-21" target="tPKEBXlNjOD2yAldGvw4-24">
          <mxGeometry relative="1" as="geometry" />
        </mxCell>
        <mxCell id="tPKEBXlNjOD2yAldGvw4-21" value="输出算法结果" style="rounded=0;whiteSpace=wrap;html=1;" vertex="1" parent="1">
          <mxGeometry x="610" y="315" width="120" height="40" as="geometry" />
        </mxCell>
        <mxCell id="tPKEBXlNjOD2yAldGvw4-23" value="&lt;span style=&quot;font-size: 11px&quot;&gt;&lt;b&gt;算法说明：&lt;br&gt;&lt;/b&gt;&lt;/span&gt;1.数据预处理&lt;br&gt;1.1获取后端传过来的数据&lt;br&gt;1.2对数据进行校验检测是否存在问题&lt;br&gt;1.3按照算法需要格式重构数据&lt;br&gt;&lt;br&gt;2.算法主函数&lt;br&gt;2.1健康度计算算法&lt;br&gt;2.2寿命预测算法&lt;br&gt;&lt;br&gt;3.处理策略&lt;br&gt;3.1获取算法输出数据&lt;br&gt;3.2检验输出数据是否齐全&lt;br&gt;3.3按照后端需要对数据进行格式转换&lt;br&gt;" style="shape=note;whiteSpace=wrap;html=1;backgroundOutline=1;darkOpacity=0.05;fontSize=14;size=24;align=left;" vertex="1" parent="1">
          <mxGeometry x="627" y="-90" width="200" height="280" as="geometry" />
        </mxCell>
        <mxCell id="tPKEBXlNjOD2yAldGvw4-24" value="&lt;font color=&quot;#000000&quot;&gt;前端输出相关结果&lt;/font&gt;" style="rounded=0;whiteSpace=wrap;html=1;fontSize=14;fontColor=#FF0000;" vertex="1" parent="1">
          <mxGeometry x="781" y="318" width="120" height="35" as="geometry" />
        </mxCell>
      </root>
    </mxGraphModel>
  </diagram>
</mxfile>
